<svg xmlns="http://www.w3.org/2000/svg" width="1320" height="720" viewBox="0 0 1320 720" role="img" aria-label="Hybrid retrieval and routing">
<defs><marker id="arrow" markerWidth="10" markerHeight="8" refX="9" refY="4" orient="auto" markerUnits="userSpaceOnUse"><path d="M0,0 L10,4 L0,8 Z" fill="#647284"/></marker></defs>
<rect width="1320" height="720" fill="white"/>
<g font-family="Arial, Helvetica, sans-serif" fill="#243247">
<text x="48" y="52" font-size="27" font-weight="700">T19 / Hybrid retrieval and routing</text>
<text x="48" y="84" font-size="14" fill="#738093">EDITABLE MECHANISM BLUEPRINT / Generic structure; adapt to your method</text>
<path d="M 235,354.0 L 330,360.0" fill="none" stroke="#647284" stroke-width="1.7" marker-end="url(#arrow)"/>
<path d="M 480,360.0 L 565.0,360.0 L 565.0,224.0 L 650,224.0" fill="none" stroke="#647284" stroke-width="1.7" marker-end="url(#arrow)"/>
<rect x="531.0" y="271.0" width="68" height="19" rx="3" fill="white"/>
<text x="565.0" y="285.0" text-anchor="middle" font-size="12" fill="#516173">semantic</text>
<path d="M 480,360.0 L 565.0,360.0 L 565.0,484.0 L 650,484.0" fill="none" stroke="#647284" stroke-width="1.7" marker-end="url(#arrow)"/>
<rect x="534.5" y="401.0" width="61" height="19" rx="3" fill="white"/>
<text x="565.0" y="415.0" text-anchor="middle" font-size="12" fill="#516173">lexical</text>
<path d="M 820,224.0 L 875.0,224.0 L 875.0,354.0 L 930,354.0" fill="none" stroke="#647284" stroke-width="1.7" marker-end="url(#arrow)"/>
<path d="M 820,484.0 L 875.0,484.0 L 875.0,354.0 L 930,354.0" fill="none" stroke="#647284" stroke-width="1.7" marker-end="url(#arrow)"/>
<path d="M 1100,354.0 L 1130,354.0" fill="none" stroke="#647284" stroke-width="1.7" marker-end="url(#arrow)"/>
<rect x="65" y="320" width="170" height="68" rx="8" fill="#E4F0E8" stroke="#63836B" stroke-width="1.6"/>
<text x="150.0" y="359.0" text-anchor="middle" font-size="16" font-weight="600">Query</text>
<polygon points="405.0,315 480,360.0 405.0,405 330,360.0" fill="#FFF1D7" stroke="#AE8C4C" stroke-width="1.6"/>
<text x="405.0" y="365.0" text-anchor="middle" font-size="16" font-weight="600">Route?</text>
<rect x="650" y="190" width="170" height="68" rx="8" fill="#E4EDF6" stroke="#637E9E" stroke-width="1.6"/>
<text x="735.0" y="229.0" text-anchor="middle" font-size="16" font-weight="600">Dense retriever</text>
<rect x="650" y="450" width="170" height="68" rx="8" fill="#E4EDF6" stroke="#637E9E" stroke-width="1.6"/>
<text x="735.0" y="489.0" text-anchor="middle" font-size="16" font-weight="600">Sparse retriever</text>
<rect x="930" y="320" width="170" height="68" rx="8" fill="#EEE7F4" stroke="#89719C" stroke-width="1.6"/>
<text x="1015.0" y="359.0" text-anchor="middle" font-size="16" font-weight="600">Merge + rerank</text>
<rect x="1130" y="320" width="155" height="68" rx="8" fill="#E4F0E8" stroke="#63836B" stroke-width="1.6"/>
<text x="1207.5" y="359.0" text-anchor="middle" font-size="16" font-weight="600">Retrieved context</text>
<line x1="48" y1="637" x2="1272" y2="637" stroke="#DCE2E9"/>
<text x="48" y="667" font-size="13" fill="#718095">Solid: forward / interaction flow     Dashed: auxiliary / training / skip path (see labels)</text>
<text x="48" y="692" font-size="12" fill="#8994A2">Original template. Source papers are topic references, not an exact algorithm specification.</text>
</g></svg>