<svg xmlns="http://www.w3.org/2000/svg" width="1320" height="720" viewBox="0 0 1320 720" role="img" aria-label="Overview with module zoom-in">
<defs><marker id="arrow" markerWidth="10" markerHeight="8" refX="9" refY="4" orient="auto" markerUnits="userSpaceOnUse"><path d="M0,0 L10,4 L0,8 Z" fill="#647284"/></marker></defs>
<rect width="1320" height="720" fill="white"/>
<g font-family="Arial, Helvetica, sans-serif" fill="#243247">
<text x="48" y="52" font-size="27" font-weight="700">T42 / Overview with module zoom-in</text>
<text x="48" y="84" font-size="14" fill="#738093">EDITABLE MECHANISM BLUEPRINT / Generic structure; adapt to your method</text>
<rect x="325" y="450" width="810" height="165" rx="12" fill="#FAFBFD" stroke="#CCD4DD" stroke-dasharray="5 4"/>
<text x="341" y="475" font-size="15" font-weight="700" fill="#68778A">Module detail</text>
<path d="M 300,319.0 L 440,319.0" fill="none" stroke="#647284" stroke-width="1.7" marker-end="url(#arrow)"/>
<path d="M 675,319.0 L 795,319.0" fill="none" stroke="#647284" stroke-width="1.7" marker-end="url(#arrow)"/>
<path d="M 440,319.0 L 495.0,319.0 L 495.0,554.0 L 550,554.0" fill="none" stroke="#647284" stroke-width="1.7" stroke-dasharray="6 4" marker-end="url(#arrow)"/>
<rect x="464.5" y="415.5" width="61" height="19" rx="3" fill="white"/>
<text x="495.0" y="429.5" text-anchor="middle" font-size="12" fill="#516173">zoom-in</text>
<path d="M 550,554.0 L 635,554.0" fill="none" stroke="#647284" stroke-width="1.7" marker-end="url(#arrow)"/>
<path d="M 805,554.0 L 890,554.0" fill="none" stroke="#647284" stroke-width="1.7" marker-end="url(#arrow)"/>
<rect x="70" y="285" width="230" height="68" rx="8" fill="#E4F0E8" stroke="#63836B" stroke-width="1.6"/>
<text x="185.0" y="324.0" text-anchor="middle" font-size="16" font-weight="600">System overview</text>
<rect x="440" y="285" width="235" height="68" rx="8" fill="#EEE7F4" stroke="#89719C" stroke-width="1.6"/>
<text x="557.5" y="324.0" text-anchor="middle" font-size="16" font-weight="600">Highlighted module</text>
<rect x="795" y="285" width="210" height="68" rx="8" fill="#E4F0E8" stroke="#63836B" stroke-width="1.6"/>
<text x="900.0" y="324.0" text-anchor="middle" font-size="16" font-weight="600">System output</text>
<rect x="380" y="520" width="170" height="68" rx="8" fill="#E4EDF6" stroke="#637E9E" stroke-width="1.6"/>
<text x="465.0" y="559.0" text-anchor="middle" font-size="16" font-weight="600">Internal step A</text>
<rect x="635" y="520" width="170" height="68" rx="8" fill="#E4EDF6" stroke="#637E9E" stroke-width="1.6"/>
<text x="720.0" y="559.0" text-anchor="middle" font-size="16" font-weight="600">Internal step B</text>
<rect x="890" y="520" width="170" height="68" rx="8" fill="#E4EDF6" stroke="#637E9E" stroke-width="1.6"/>
<text x="975.0" y="559.0" text-anchor="middle" font-size="16" font-weight="600">Internal step C</text>
<line x1="48" y1="637" x2="1272" y2="637" stroke="#DCE2E9"/>
<text x="48" y="667" font-size="13" fill="#718095">Solid: forward / interaction flow     Dashed: auxiliary / training / skip path (see labels)</text>
<text x="48" y="692" font-size="12" fill="#8994A2">Original template. Source papers are topic references, not an exact algorithm specification.</text>
</g></svg>